<?xml version="1.0" standalone="no"?>
<!DOCTYPE svg PUBLIC "-//W3C//DTD SVG 20010904//EN"
 "http://www.w3.org/TR/2001/REC-SVG-20010904/DTD/svg10.dtd">
<svg version="1.0" xmlns="http://www.w3.org/2000/svg"
 width="1024.000000pt" height="1024.000000pt" viewBox="0 0 1024.000000 1024.000000"
 preserveAspectRatio="xMidYMid meet">

<g transform="translate(0.000000,1024.000000) scale(0.100000,-0.100000)"
fill="#000000" stroke="none">
<path d="M0 5120 l0 -5120 5120 0 5120 0 0 5120 0 5120 -5120 0 -5120 0 0
-5120z m6444 1945 c-15 -198 -29 -362 -30 -364 -2 -2 -36 18 -75 44 -40 26
-79 48 -87 49 -8 1 -65 -79 -135 -189 -314 -497 -604 -950 -737 -1155 -80
-124 -159 -246 -174 -272 -15 -27 -33 -48 -39 -48 -7 1 -29 25 -50 55 -20 30
-63 87 -95 127 -32 40 -105 134 -162 208 -119 153 -143 180 -163 180 -8 0 -36
-28 -63 -62 -209 -268 -488 -560 -686 -719 -129 -103 -128 -102 -128 -96 0 2
31 30 70 62 38 31 67 62 63 68 -3 5 -2 7 4 4 10 -6 115 76 166 130 l28 30 -45
-2 c-34 -1 -46 2 -46 12 0 8 -4 11 -10 8 -5 -3 -10 3 -10 14 0 12 -7 21 -15
21 -8 0 -15 6 -15 14 0 20 89 125 103 122 7 -1 9 -1 5 1 -6 4 48 78 195 268
30 39 129 172 221 297 145 198 167 233 169 267 l1 40 51 3 50 3 5 95 c3 53 9
95 15 95 6 0 12 -42 15 -95 l5 -95 53 -3 52 -3 0 -168 0 -168 98 -129 c67 -89
103 -129 117 -129 15 0 47 44 129 175 61 96 247 393 414 660 168 267 307 492
309 501 4 12 -17 28 -76 60 -45 24 -80 47 -79 51 2 5 138 109 303 232 l300
224 4 -31 c1 -18 -9 -194 -25 -392z m-864 302 c161 -35 390 -112 390 -130 0
-2 -25 -21 -55 -41 -52 -34 -57 -36 -83 -22 -50 25 -182 67 -276 86 -373 78
-776 26 -1117 -145 -308 -155 -551 -382 -738 -689 -75 -123 -130 -247 -174
-396 -49 -162 -68 -280 -74 -465 -8 -222 13 -395 71 -596 13 -43 20 -81 17
-84 -9 -9 -59 180 -83 314 -18 103 -22 163 -23 334 0 119 -3 191 -7 167 -4
-24 -10 -46 -14 -49 -3 -3 -3 10 0 29 5 26 4 31 -3 20 -6 -8 -11 -26 -11 -40
l-1 -25 -10 25 c-15 36 -4 200 20 307 30 135 65 232 135 379 240 500 673 859
1205 998 172 45 273 56 506 51 177 -3 228 -7 325 -28z m-302 -164 c-10 -2 -26
-2 -35 0 -10 3 -2 5 17 5 19 0 27 -2 18 -5z m252 -33 c0 -5 -4 -10 -10 -10 -5
0 -10 5 -10 10 0 6 5 10 10 10 6 0 10 -4 10 -10z m-204 -56 c30 -20 54 -38 51
-40 -4 -5 -57 26 -102 60 -39 29 -5 16 51 -20z m28 -241 c-10 -7 -27 -12 -38
-12 -21 1 -21 1 -1 6 31 8 45 23 46 52 2 25 2 25 6 -4 3 -20 -1 -33 -13 -42z
m190 -19 c3 -9 6 -31 6 -50 0 -33 2 -34 38 -34 62 0 63 -2 60 -151 l-3 -134
-47 -3 -47 -3 -3 -67 c-2 -52 -6 -67 -18 -67 -17 0 -17 2 -19 80 l-1 55 -50 0
-50 0 0 140 c0 104 3 140 13 142 6 1 23 2 37 3 14 2 31 3 38 4 7 1 12 17 12
44 0 42 5 57 21 57 4 0 10 -7 13 -16z m1052 -111 c286 -335 454 -795 454
-1248 0 -541 -206 -1030 -589 -1398 -89 -85 -300 -247 -322 -247 -10 0 -23 20
-12 20 4 0 19 10 33 21 17 14 10 12 -23 -7 -32 -17 -51 -23 -56 -16 -4 7 -13
5 -26 -5 -19 -15 -19 -15 4 -8 17 5 21 4 16 -5 -6 -9 -2 -9 15 0 15 8 25 9 32
2 7 -7 -7 -19 -43 -38 -93 -48 -131 -64 -140 -58 -5 3 -9 0 -9 -6 0 -6 -5 -8
-12 -4 -8 5 10 18 47 36 33 16 52 26 42 23 -12 -3 -17 -1 -14 7 2 7 10 12 16
10 7 -1 10 2 6 8 -4 6 -12 6 -25 -2 -14 -9 -22 -9 -34 1 -16 13 -40 6 -31 -9
10 -16 -10 -18 -30 -3 -15 12 -16 14 -3 10 9 -3 18 -3 20 2 5 12 155 91 162
84 3 -3 12 0 20 6 8 7 20 10 26 6 5 -3 10 -2 10 4 0 13 45 61 57 61 5 0 18 7
29 16 10 8 12 12 4 8 -20 -9 -7 3 60 56 495 392 745 1053 644 1700 -50 321
-178 617 -365 846 l-58 72 6 66 c3 36 10 66 14 66 5 0 38 -35 75 -77z m-1396
-147 l0 -75 48 -3 47 -3 3 -262 2 -263 -50 0 -50 0 0 -95 c0 -78 -3 -95 -15
-95 -12 0 -15 17 -15 94 0 103 -2 106 -66 106 l-34 0 -1 245 c-1 135 -2 251
-3 258 -1 8 17 13 52 15 l52 3 0 75 c0 59 3 74 15 74 12 0 15 -15 15 -74z
m-782 2 c5 -8 6 -22 2 -34 -14 -37 -25 -34 -25 7 -1 40 5 48 23 27z m2058 -20
l29 -32 -32 25 c-18 13 -32 27 -32 32 -1 12 4 8 35 -25z m-2137 -42 c9 -11 8
-15 -5 -20 -9 -4 -19 -4 -22 -1 -3 3 0 5 8 5 10 0 10 3 0 15 -7 8 -8 15 -2 15
5 0 15 -6 21 -14z m2231 -136 c-8 -5 -46 -9 -85 -8 -65 1 -67 1 -25 8 73 11
128 11 110 0z m-2025 -310 c4 -6 -51 -88 -122 -183 -70 -95 -136 -184 -145
-197 -16 -24 -17 -16 -17 176 -1 110 2 204 6 207 11 11 271 8 278 -3z m1945
-145 l0 -155 -215 0 -215 0 -2 -102 c0 -57 0 -177 1 -268 1 -91 -1 -360 -5
-597 l-6 -433 -159 0 -159 0 0 399 c0 337 -2 400 -15 411 -8 6 -18 9 -23 7 -4
-3 -106 -152 -227 -331 -179 -267 -223 -326 -241 -326 -17 0 -26 9 -35 35 -9
23 -19 35 -32 35 -11 0 -15 4 -11 12 5 8 0 9 -15 5 -14 -3 -24 0 -28 9 -3 8
-14 14 -25 14 -15 0 -18 -5 -13 -20 9 -27 1 -25 -19 5 -12 18 -13 24 -4 23 7
-2 13 6 13 17 0 16 -6 20 -29 18 -24 -2 -26 0 -14 10 8 7 18 19 20 27 7 20
-15 52 -33 48 -8 -2 -13 2 -12 9 2 9 -4 10 -22 3 -23 -9 -29 -4 -70 47 -32 41
-41 59 -32 65 8 6 5 10 -10 14 -13 3 -20 11 -16 19 3 8 -8 20 -25 29 -17 9
-41 30 -53 48 -13 18 -31 42 -41 52 -10 11 -18 23 -18 27 0 13 -57 78 -64 72
-3 -3 -6 -1 -6 5 0 6 -6 9 -14 6 -7 -3 -13 -11 -13 -17 0 -7 -1 -183 -3 -392
-3 -337 -4 -361 -11 -210 -4 94 -8 263 -9 378 -1 117 -5 205 -10 202 -5 -3 -7
-12 -4 -19 3 -8 -5 -24 -18 -35 -20 -19 -24 -20 -34 -6 -6 8 -16 15 -23 15 -6
0 -11 9 -11 20 0 11 -6 20 -13 20 -24 0 -59 37 -50 53 7 13 91 113 118 141 13
14 125 152 144 177 7 11 19 19 25 19 6 0 110 -131 231 -291 172 -227 224 -289
240 -287 23 3 37 24 515 763 75 116 162 249 194 298 l57 87 275 0 274 0 0
-155z m-2680 -1129 c0 -2 -8 -10 -17 -17 -16 -13 -17 -12 -4 4 13 16 21 21 21
13z m-40 -31 c0 -2 -20 -18 -45 -35 -25 -17 -45 -29 -45 -26 0 4 80 64 88 66
1 0 2 -2 2 -5z m2624 -59 c7 -18 6 -30 -1 -37 -9 -9 -11 -7 -7 9 7 23 -30 67
-48 56 -7 -4 -8 -3 -4 4 11 18 50 -2 60 -32z m-2764 -40 c0 -2 -7 -7 -16 -10
-8 -3 -12 -2 -9 4 6 10 25 14 25 6z m91 -167 c168 -278 421 -506 734 -661 66
-33 109 -56 95 -53 -47 14 -240 117 -331 178 -213 142 -393 336 -523 560 -15
26 -26 47 -23 47 3 0 24 -32 48 -71z m1436 -181 c-2 -24 -4 -5 -4 42 0 47 2
66 4 43 2 -24 2 -62 0 -85z m-547 -548 c8 -5 11 -10 5 -10 -5 0 -17 5 -25 10
-8 5 -10 10 -5 10 6 0 17 -5 25 -10z m125 -40 c13 -5 14 -9 5 -9 -8 0 -24 4
-35 9 -13 5 -14 9 -5 9 8 0 24 -4 35 -9z m192 -46 c-3 -3 -12 -4 -19 -1 -8 3
-5 6 6 6 11 1 17 -2 13 -5z m81 -11 c-10 -2 -26 -2 -35 0 -10 3 -2 5 17 5 19
0 27 -2 18 -5z m110 -10 c-16 -2 -40 -2 -55 0 -16 2 -3 4 27 4 30 0 43 -2 28
-4z m2392 -853 l0 -310 -35 0 c-27 0 -35 4 -35 18 0 29 -11 33 -37 12 -13 -10
-49 -24 -79 -30 -105 -22 -204 30 -220 115 -3 18 -4 76 -2 129 3 105 15 130
79 174 30 21 43 23 111 20 48 -3 86 -11 102 -21 14 -9 27 -17 28 -17 2 0 4 28
4 63 1 34 2 83 3 110 l1 47 40 0 40 0 0 -310z m-4948 118 c40 -84 89 -188 108
-230 19 -43 37 -77 40 -77 5 0 189 392 203 435 8 22 14 24 68 24 l59 0 0 -290
0 -290 -46 0 c-37 0 -45 3 -43 18 1 9 0 107 -1 217 l-1 200 -42 -85 c-23 -47
-70 -144 -103 -216 l-62 -130 -33 4 c-33 4 -36 8 -134 213 -55 114 -104 208
-109 208 -4 1 -5 -55 -1 -123 8 -137 -2 -306 -17 -306 -6 0 -8 7 -5 15 4 8 2
17 -4 20 -5 4 -9 3 -8 -2 4 -24 -3 -34 -23 -31 l-23 3 -3 288 -2 287 54 0 55
0 73 -152z m3668 110 l0 -43 -97 0 -98 0 -3 -248 -2 -248 -43 3 -42 3 -3 248
-2 247 -100 0 -100 0 0 40 0 40 245 0 245 0 0 -42z m-1860 -38 l0 -60 69 0
c39 0 73 -5 76 -10 4 -6 4 -24 0 -40 -7 -30 -7 -30 -76 -30 l-69 0 0 -123 c0
-153 5 -162 87 -163 l58 -1 -2 -32 c0 -18 -4 -35 -7 -38 -3 -3 -36 -6 -73 -6
-80 -1 -127 21 -143 66 -5 17 -10 90 -10 163 l0 134 -40 0 -40 0 0 40 0 40 40
0 40 0 0 60 0 60 45 0 45 0 0 -60z m-862 -77 c71 -34 110 -135 95 -248 -14
-107 -56 -156 -149 -175 -70 -15 -185 0 -223 28 -48 34 -71 96 -71 192 0 137
46 202 155 221 55 10 153 0 193 -18z m292 -142 c0 -198 4 -206 102 -205 40 0
75 6 96 17 l32 18 0 164 0 165 45 0 45 0 0 -220 0 -220 -40 0 c-36 0 -40 2
-40 26 l0 25 -29 -20 c-69 -49 -195 -51 -251 -5 -42 36 -50 77 -50 257 l0 157
45 0 45 0 0 -159z m1110 143 c67 -27 74 -52 78 -251 l4 -173 -41 0 c-40 0 -46
6 -41 39 1 9 -6 7 -24 -7 -58 -45 -203 -54 -261 -16 -33 22 -45 51 -45 113 0
37 6 54 25 75 35 37 61 45 186 52 l111 7 -6 30 c-12 61 -30 69 -136 64 -52 -2
-105 -8 -117 -12 -21 -7 -23 -4 -23 33 0 38 2 41 38 50 62 17 206 14 252 -4z
m550 -21 c0 -35 -12 -51 -129 -178 l-129 -140 134 -3 134 -3 0 -39 0 -40 -195
0 -195 0 0 34 c0 30 17 53 130 177 l129 144 -124 3 -125 3 0 39 0 40 185 0
185 0 0 -37z m1090 -3 l0 -40 -49 0 c-34 0 -58 -7 -82 -23 l-34 -23 -3 -157
-3 -158 -42 3 -42 3 -3 213 -2 212 40 0 c36 0 40 -2 40 -25 0 -26 14 -33 26
-14 14 24 71 49 112 49 l42 0 0 -40z m387 14 c48 -36 53 -55 53 -243 0 -154
-2 -172 -16 -167 -9 3 -27 6 -40 6 -21 0 -24 3 -19 21 4 12 3 19 -1 17 -97
-47 -126 -54 -217 -50 -30 2 -47 10 -73 36 -29 29 -34 41 -34 80 0 104 49 136
210 136 l100 0 0 38 c0 47 -21 69 -76 77 -35 6 -109 -3 -172 -21 -22 -6 -23
-4 -20 32 3 35 6 40 43 51 23 7 81 11 137 10 80 -2 101 -6 125 -23z m1011 7
c67 -34 92 -83 92 -177 l0 -54 -165 0 c-160 0 -165 -1 -165 -20 0 -37 28 -77
61 -89 43 -15 121 -14 192 3 l57 13 0 -37 c0 -36 -2 -38 -44 -49 -63 -16 -210
-14 -250 3 -78 32 -113 114 -103 237 8 95 42 152 107 178 45 18 177 13 218 -8z
m1757 -2199 c25 -60 97 -132 157 -157 27 -11 48 -22 48 -25 0 -3 -21 -13 -46
-24 -60 -24 -135 -99 -160 -158 -10 -27 -21 -48 -24 -48 -3 0 -14 21 -25 48
-25 60 -97 132 -157 157 -27 11 -48 23 -48 26 0 4 21 14 47 24 60 23 133 96
158 157 11 27 22 48 25 48 3 0 14 -21 25 -48z"/>
<path d="M4240 5220 c-16 -16 -30 -33 -30 -37 0 -4 16 8 35 27 19 19 35 35 35
37 0 8 -12 0 -40 -27z"/>
<path d="M3446 5852 c-2 -4 -1 -14 4 -22 7 -11 9 -9 7 8 -1 24 -3 26 -11 14z"/>
<path d="M3442 5775 c0 -16 2 -22 5 -12 2 9 2 23 0 30 -3 6 -5 -1 -5 -18z"/>
<path d="M6050 3900 c-9 -6 -10 -10 -3 -10 6 0 15 5 18 10 8 12 4 12 -15 0z"/>
<path d="M6105 3890 c-3 -6 1 -7 9 -4 18 7 21 14 7 14 -6 0 -13 -4 -16 -10z"/>
<path d="M5277 4646 c-10 -8 -14 -16 -10 -19 5 -3 14 3 21 14 14 22 13 23 -11
5z"/>
<path d="M7240 2873 c-44 -23 -64 -82 -56 -165 7 -68 20 -93 58 -109 36 -15
120 -7 153 15 25 17 26 19 23 123 -3 101 -4 107 -29 126 -38 28 -106 32 -149
10z"/>
<path d="M3304 2876 c-39 -17 -54 -57 -54 -142 0 -79 11 -109 49 -129 38 -19
123 -20 160 -1 38 20 51 55 51 141 0 68 -3 78 -29 107 -24 28 -35 32 -87 35
-36 2 -71 -2 -90 -11z"/>
<path d="M4700 2697 c-18 -9 -26 -22 -28 -47 -5 -47 17 -60 95 -60 83 0 119
18 127 65 4 19 4 40 1 45 -9 14 -165 12 -195 -3z"/>
<path d="M6696 2689 c-30 -23 -33 -45 -10 -77 13 -19 24 -22 80 -22 36 0 80 7
99 14 33 14 35 18 35 60 l0 46 -89 0 c-74 0 -92 -3 -115 -21z"/>
<path d="M7758 2875 c-32 -18 -48 -44 -48 -79 l0 -26 120 0 120 0 0 29 c0 17
-10 42 -23 57 -20 23 -33 28 -83 31 -40 2 -68 -2 -86 -12z"/>
</g>
</svg>
